<svg xmlns="http://www.w3.org/2000/svg" width="1254" height="1254" viewBox="0 0 1254 1254" version="1.1" role="img" aria-labelledby="title">
	<title id="title">FontNest open-book F logo</title>
	<path d="M 1058.500 167.912 C 1045.378 173.819, 974.011 205.784, 935 223.227 C 892.542 242.211, 858.472 257.432, 818 275.495 C 748.764 306.398, 725.472 316.838, 702.143 327.426 C 690.396 332.757, 680.608 336.941, 680.391 336.724 C 666.391 322.724, 646.383 303.928, 636.818 295.791 C 609.051 272.166, 574.948 249.479, 538.799 230.582 C 495.713 208.059, 441.662 189.558, 394.075 181.044 C 387.791 179.920, 381.378 179, 379.823 179 L 376.996 179 377.248 451.609 L 377.500 724.218 396.500 729.008 C 419.441 734.791, 436.432 740.196, 456.734 748.168 C 501.551 765.766, 546.362 794.835, 580.978 828.762 L 593.500 841.035 586 836.936 C 556.571 820.854, 516.536 804.548, 476.832 792.472 C 434.325 779.544, 384.380 768.967, 342.500 764.026 C 337.550 763.442, 332.262 762.711, 330.750 762.403 L 328 761.841 328 540.421 C 328 418.639, 328.193 319, 328.428 319 C 328.663 319, 333.051 320.124, 338.178 321.497 C 343.305 322.871, 347.684 323.996, 347.908 323.997 C 348.132 323.999, 348.005 312.880, 347.625 299.289 C 347.132 281.630, 346.587 274.352, 345.717 273.787 C 344.133 272.758, 332.966 269.392, 321 266.336 C 310.174 263.572, 278.386 257.018, 275.750 257.007 C 274.088 257, 274 270.807, 274 533 C 274 684.800, 274.307 809, 274.682 809 C 277.237 809, 315.244 813.624, 333 816.095 C 372.369 821.574, 392 825.285, 425.089 833.503 C 476.633 846.305, 515.329 860.157, 555.135 880.054 C 597.121 901.041, 622.742 917.885, 655.313 945.916 C 660.160 950.087, 665.822 954.958, 667.895 956.741 L 671.664 959.982 706.582 944.340 C 725.787 935.737, 755.225 922.563, 772 915.065 L 802.500 901.431 802.755 802.919 L 803.010 704.407 827.755 693.545 C 841.365 687.570, 856.550 680.907, 861.500 678.737 C 866.450 676.567, 874.325 673.083, 879 670.995 C 903.561 660.023, 918.499 653.419, 948.500 640.266 C 966.650 632.310, 983.638 624.885, 986.250 623.766 L 991 621.733 991 537.867 C 991 491.740, 990.752 454, 990.449 454 C 989.813 454, 962.929 465.649, 912.500 487.775 C 896.417 494.831, 855.032 513.266, 823.604 527.373 C 814.312 531.545, 805.874 535.222, 804.854 535.546 C 803.068 536.113, 803 534.559, 803 493.268 L 803 450.402 806.750 449.055 C 808.813 448.314, 823.775 441.743, 840 434.452 C 890.213 411.888, 956.616 382.115, 976 373.473 C 1040.698 344.631, 1073.599 329.782, 1074.268 329.122 C 1074.690 328.705, 1075.044 292.620, 1075.054 248.932 C 1075.077 152.598, 1075.154 160.984, 1074.250 161.080 C 1073.838 161.123, 1066.750 164.198, 1058.500 167.912 M 1006 248.943 C 998.025 252.690, 983.175 259.470, 973 264.009 C 962.825 268.549, 950.225 274.193, 945 276.551 C 917.865 288.800, 855.536 316.702, 849 319.526 C 842.402 322.378, 828.441 328.654, 799 342.005 C 784.314 348.664, 740.289 368.345, 720.750 376.986 L 702 385.277 702 482.472 C 702 535.929, 702.247 579.914, 702.549 580.216 C 702.851 580.518, 713.763 575.934, 726.799 570.031 L 750.500 559.297 750.790 487.898 L 751.079 416.500 770.290 408.060 C 780.855 403.417, 802.100 393.912, 817.500 386.937 C 860.295 367.554, 893.926 352.380, 966.500 319.713 C 994 307.334, 1017.737 296.638, 1019.250 295.943 L 1022 294.679 1022 268.339 C 1022 253.853, 1021.663 242.029, 1021.250 242.065 C 1020.837 242.101, 1013.975 245.196, 1006 248.943 M 431 464.311 L 431 683.622 436.250 684.943 C 443.932 686.876, 470.667 696.470, 482.903 701.685 C 529.582 721.579, 573.801 749.974, 610.537 783.642 C 620.966 793.201, 640.626 814.349, 646.848 822.703 L 648.931 825.500 649.216 603.616 L 649.500 381.732 636.798 368.517 C 624.949 356.189, 607.440 339.926, 597 331.551 C 585.551 322.367, 564.482 306.966, 554.500 300.485 C 528.843 283.827, 506.019 272.079, 475.500 259.822 C 463.818 255.130, 434.332 245, 432.358 245 C 431.218 245, 431 280.256, 431 464.311 M 929 538.321 C 924.325 540.491, 913.075 545.514, 904 549.484 C 874.404 562.432, 821.579 585.703, 765.500 610.498 C 735.250 623.873, 708.587 635.581, 706.250 636.517 L 702 638.217 702 763.716 C 702 873.404, 702.184 889.143, 703.462 888.653 C 704.266 888.344, 714.889 883.459, 727.068 877.796 C 742.302 870.713, 749.453 866.876, 749.982 865.500 C 750.405 864.400, 750.804 820.116, 750.868 767.090 C 750.933 714.065, 751.202 670.464, 751.467 670.200 C 751.732 669.935, 765.347 663.761, 781.724 656.480 C 798.101 649.200, 836.475 632.103, 867 618.488 C 897.525 604.873, 925.789 592.281, 929.810 590.507 C 933.830 588.732, 937.440 586.880, 937.832 586.390 C 938.223 585.901, 938.309 573.997, 938.022 559.939 L 937.500 534.377 929 538.321" stroke="none" fill="#000000" fill-rule="evenodd"/>
</svg>
