<svg width="256" height="256" viewBox="0 0 256 256" fill="none" xmlns="http://www.w3.org/2000/svg">
<rect width="256" height="256" rx="32" fill="black"/>
<path fill-rule="evenodd" clip-rule="evenodd" d="M206.153 47.44C203.474 48.6458 188.905 55.1714 180.941 58.7323C172.273 62.6078 165.318 65.7152 157.056 69.4027C142.922 75.7114 138.167 77.8427 133.404 80.0042C131.006 81.0925 129.008 81.9467 128.963 81.9024C126.105 79.0443 122.021 75.2072 120.068 73.546C114.4 68.7231 107.438 64.0916 100.058 60.2338C91.262 55.6358 80.2277 51.8589 70.5129 50.1208C69.2301 49.8913 67.9209 49.7035 67.6034 49.7035H67.0263L67.0777 105.356L67.1292 161.008L71.008 161.986C75.6913 163.166 79.16 164.27 83.3045 165.897C92.4538 169.49 101.602 175.424 108.669 182.35L111.225 184.856L109.694 184.019C103.686 180.736 95.5129 177.407 87.4075 174.942C78.7298 172.303 68.5337 170.143 59.9841 169.135C58.9735 169.015 57.894 168.866 57.5853 168.803L57.0239 168.689V123.486C57.0239 98.6251 57.0633 78.2841 57.1113 78.2841C57.1593 78.2841 58.0551 78.5135 59.1017 78.7938C60.1484 79.0743 61.0423 79.304 61.0881 79.3042C61.1338 79.3046 61.1079 77.0347 61.0303 74.2601C60.9297 70.6551 60.8184 69.1693 60.6408 69.054C60.3174 68.8439 58.0377 68.1568 55.5949 67.5329C53.3848 66.9686 46.8954 65.6306 46.3573 65.6284C46.018 65.627 46 68.4456 46 121.971C46 152.961 46.0627 178.316 46.1392 178.316C46.6608 178.316 54.4198 179.26 58.0447 179.764C66.0817 180.883 70.0893 181.64 76.8443 183.318C87.3669 185.932 95.2665 188.759 103.393 192.821C111.964 197.106 117.195 200.544 123.844 206.267C124.833 207.118 125.989 208.113 126.412 208.477L127.182 209.138L134.31 205.945C138.231 204.189 144.241 201.499 147.665 199.969L153.892 197.185L153.944 177.075L153.996 156.964L159.047 154.746C161.826 153.526 164.926 152.166 165.936 151.723C166.947 151.28 168.554 150.569 169.509 150.143C174.523 147.903 177.572 146.555 183.697 143.869C187.402 142.245 190.87 140.729 191.404 140.501L192.373 140.086V122.965C192.373 113.548 192.323 105.844 192.261 105.844C192.131 105.844 186.643 108.222 176.348 112.739C173.064 114.179 164.616 117.943 158.2 120.823C156.303 121.674 154.58 122.425 154.372 122.491C154.008 122.607 153.994 122.29 153.994 113.86V105.109L154.759 104.834C155.18 104.683 158.235 103.342 161.547 101.853C171.798 97.2469 185.354 91.1688 189.311 89.4046C202.519 83.5166 209.236 80.4852 209.372 80.3504C209.458 80.2653 209.531 72.8987 209.533 63.9799C209.537 44.3136 209.553 46.0256 209.368 46.0452C209.284 46.054 207.837 46.6817 206.153 47.44ZM195.435 63.9822C193.807 64.7471 190.776 66.1312 188.699 67.0578C186.621 67.9847 184.049 69.1369 182.982 69.6182C177.443 72.1188 164.719 77.8149 163.384 78.3915C162.037 78.9737 159.187 80.2549 153.177 82.9805C150.179 84.3399 141.191 88.3577 137.203 90.1217L133.375 91.8143V111.656C133.375 122.569 133.425 131.549 133.487 131.61C133.549 131.672 135.776 130.736 138.437 129.531L143.276 127.34L143.335 112.764L143.394 98.1884L147.316 96.4654C149.473 95.5175 153.81 93.5771 156.954 92.1532C165.69 88.1962 172.556 85.0985 187.372 78.4296C192.986 75.9025 197.831 73.7189 198.14 73.5771L198.702 73.319V67.9418C198.702 64.9845 198.633 62.5707 198.549 62.578C198.464 62.5854 197.063 63.2172 195.435 63.9822ZM78.051 107.949V152.72L79.1228 152.99C80.6911 153.385 86.1489 155.343 88.6469 156.408C98.1762 160.469 107.203 166.266 114.703 173.139C116.832 175.091 120.846 179.408 122.116 181.113L122.541 181.684L122.599 136.388L122.657 91.0906L120.064 88.3928C117.645 85.8761 114.071 82.556 111.939 80.8463C109.602 78.9714 105.301 75.8274 103.263 74.5043C98.0254 71.1036 93.3659 68.7053 87.1356 66.2031C84.7507 65.2452 78.7313 63.1772 78.3283 63.1772C78.0955 63.1772 78.051 70.3746 78.051 107.949ZM179.716 123.058C178.762 123.501 176.465 124.526 174.612 125.337C168.571 127.98 157.786 132.731 146.338 137.792C140.163 140.523 134.72 142.913 134.242 143.104L133.375 143.451V169.071C133.375 191.464 133.412 194.677 133.673 194.577C133.837 194.514 136.006 193.517 138.492 192.36C141.602 190.914 143.062 190.131 143.17 189.85C143.257 189.626 143.338 180.585 143.351 169.76C143.364 158.935 143.419 150.034 143.473 149.98C143.527 149.926 146.307 148.666 149.65 147.18C152.994 145.693 160.827 142.203 167.059 139.424C173.291 136.644 179.061 134.073 179.881 133.711C180.702 133.349 181.439 132.971 181.519 132.871C181.599 132.771 181.617 130.341 181.558 127.471L181.451 122.253L179.716 123.058Z" fill="white"/>
</svg>
